# xmcd
#
# Track frame offsets:
#	150
#	19867
#	37188
#	59933
#	86492
#	105074
#	124178
#	137477
#	157122
#	178209
#
# Disc length: 2781 seconds
#
# Revision: 0
# Processed by: cddbd v1.4PL0 Copyright (c) Steve Scherf et al.
# Submitted via: EasyCDDAExtractor 4.6.9.1
#
DISCID=890adb0a
DTITLE=Various Artist - Women Of Worship
DYEAR=1998
DGENRE=Gospel
TTITLE0=Vickie Winans - What A Mighty God We Serve
TTITLE1=Regina Murf and Kim Rutherford - Blessing, Glory And Honor
TTITLE2=Praise Medley
TTITLE3=Vanessa Bell Armstrong - Father, I Stretch
TTITLE4=Beverly Crawford - Praise Jehovah
TTITLE5=Shirley Ceasar - Taking It Back
TTITLE6=Albertina Walker - Life Can Be So Beautiful
TTITLE7=Dottie Peoples - Praise The Lord
TTITLE8=Women of the Motor City Mass Choir - We Behold You
TTITLE9=Yolanda Adams - Let Us Worship Him
EXTD=Integrity Music - Women of Faith
EXTT0=
EXTT1=
EXTT2=
EXTT3=
EXTT4=
EXTT5=
EXTT6=
EXTT7=
EXTT8=
EXTT9=
PLAYORDER=
